HIERARCHY
ROOT Hips
{
	OFFSET 0.00000 0.00000 0.00000
	CHANNELS 6 Xposition Yposition Zposition Zrotation Yrotation Xrotation 
	JOINT LHipJoint
	{
		OFFSET 0 0 0
		CHANNELS 3 Zrotation Yrotation Xrotation
		JOINT LeftUpLeg
		{
			OFFSET 1.75344 -1.53157 0.77399
			CHANNELS 3 Zrotation Yrotation Xrotation
			JOINT LeftLeg
			{
				OFFSET 2.25415 -6.19323 0.00000
				CHANNELS 3 Zrotation Yrotation Xrotation
				JOINT LeftFoot
				{
					OFFSET 2.30342 -6.32861 0.00000
					CHANNELS 3 Zrotation Yrotation Xrotation
					JOINT LeftToeBase
					{
						OFFSET 0.10958 -0.30108 1.49206
						CHANNELS 3 Zrotation Yrotation Xrotation
						End Site
						{
							OFFSET 0.00000 -0.00000 0.77783
						}
					}
				}
			}
		}
	}
	JOINT RHipJoint
	{
		OFFSET 0 0 0
		CHANNELS 3 Zrotation Yrotation Xrotation
		JOINT RightUpLeg
		{
			OFFSET -1.81912 -1.53156 0.77399
			CHANNELS 3 Zrotation Yrotation Xrotation
			JOINT RightLeg
			{
				OFFSET -2.22882 -6.12365 0.00000
				CHANNELS 3 Zrotation Yrotation Xrotation
				JOINT RightFoot
				{
					OFFSET -2.21943 -6.09785 0.00000
					CHANNELS 3 Zrotation Yrotation Xrotation
					JOINT RightToeBase
					{
						OFFSET -0.18931 -0.52012 1.59379
						CHANNELS 3 Zrotation Yrotation Xrotation
						End Site
						{
							OFFSET -0.00000 -0.00000 0.84686
						}
					}
				}
			}
		}
	}
	JOINT LowerBack
	{
		OFFSET 0 0 0
		CHANNELS 3 Zrotation Yrotation Xrotation
		JOINT Spine
		{
			OFFSET -0.00200 1.66634 -0.14248
			CHANNELS 3 Zrotation Yrotation Xrotation
			JOINT Spine1
			{
				OFFSET -0.00875 1.64542 0.09514
				CHANNELS 3 Zrotation Yrotation Xrotation
				JOINT Neck
				{
					OFFSET 0 0 0
					CHANNELS 3 Zrotation Yrotation Xrotation
					JOINT Neck1
					{
						OFFSET 0.02257 1.59605 0.00839
						CHANNELS 3 Zrotation Yrotation Xrotation
						JOINT Head
						{
							OFFSET -0.10214 1.57530 -0.23335
							CHANNELS 3 Zrotation Yrotation Xrotation
							End Site
							{
								OFFSET -0.03588 1.60717 -0.08062
							}
						}
					}
				}
				JOINT LeftShoulder
				{
					OFFSET 0 0 0
					CHANNELS 3 Zrotation Yrotation Xrotation
					JOINT LeftArm
					{
						OFFSET 2.54983 1.10186 0.40078
						CHANNELS 3 Zrotation Yrotation Xrotation
						JOINT LeftForeArm
						{
							OFFSET 4.28840 -0.00000 0.00000
							CHANNELS 3 Zrotation Yrotation Xrotation
							JOINT LeftHand
							{
								OFFSET 3.06552 -0.00000 -0.00000
								CHANNELS 3 Zrotation Yrotation Xrotation
								JOINT LeftFingerBase
								{
									OFFSET 0 0 0
									CHANNELS 3 Zrotation Yrotation Xrotation
									JOINT LeftHandIndex1
									{
										OFFSET 0.75304 -0.00000 0.00000
										CHANNELS 3 Zrotation Yrotation Xrotation
										End Site
										{
											OFFSET 0.60712 -0.00000 0.00000
										}
									}
								}
								JOINT LThumb
								{
									OFFSET 0 0 0
									CHANNELS 3 Zrotation Yrotation Xrotation
									End Site
									{
										OFFSET 0.61639 -0.00000 0.61639
									}
								}
							}
						}
					}
				}
				JOINT RightShoulder
				{
					OFFSET 0 0 0
					CHANNELS 3 Zrotation Yrotation Xrotation
					JOINT RightArm
					{
						OFFSET -2.60909 1.35448 0.21802
						CHANNELS 3 Zrotation Yrotation Xrotation
						JOINT RightForeArm
						{
							OFFSET -4.52172 -0.00000 -0.00000
							CHANNELS 3 Zrotation Yrotation Xrotation
							JOINT RightHand
							{
								OFFSET -2.89140 -0.00000 0.00000
								CHANNELS 3 Zrotation Yrotation Xrotation
								JOINT RightFingerBase
								{
									OFFSET 0 0 0
									CHANNELS 3 Zrotation Yrotation Xrotation
									JOINT RightHandIndex1
									{
										OFFSET -0.68054 -0.00000 0.00000
										CHANNELS 3 Zrotation Yrotation Xrotation
										End Site
										{
											OFFSET -0.54867 -0.00000 0.00000
										}
									}
								}
								JOINT RThumb
								{
									OFFSET 0 0 0
									CHANNELS 3 Zrotation Yrotation Xrotation
									End Site
									{
										OFFSET -0.55705 -0.00000 0.55705
									}
								}
							}
						}
					}
				}
			}
		}
	}
}
MOTION
Frames: 15
Frame Time: .0083333
8.66 15.156 41.9088 0 0 0 0 0 0 -21 0 0 0 0 0 0 0 0 0 0 0 0 0 0 21 0 0 0 0 0 0 0 0 0 0 0 0 0 0 0 0 0 0 0 0 0 0 -16 0 0 21 0 0 11 0 0 0 -8 0 0 0 0 0 0 0 0 0 0 0 0 0 0 0 0 0 0 0 0 8 0 0 0 0 0 0 0 0 0 0 0 0 0 0 0 0 0
8.6600 15.1560 41.9088 -179.6940 -6.0742 177.4570 0.0000 0.0000 0.0000 -27.2392 -22.7718 1.7225 2.2579 9.3838 27.0034 1.5064 8.1747 -27.4118 2.2981 -9.4612 -27.2488 0.0000 0.0000 0.0000 24.4578 12.8819 -0.4412 -2.2444 -9.3576 26.9204 -0.5915 -20.6818 -33.1071 -0.0830 -1.8588 5.1155 5.5716 3.4428 6.1185 -1.9819 4.9446 -4.0342 -5.7880 2.0750 -7.0344 10.9113 16.5134 -1.9819 -4.4383 21.9360 8.9923 -1.6542 10.9645 4.6904 -0.0000 0.0000 0.0000 -81.9633 11.9551 43.1001 21.2184 -32.0824 -6.1655 -0.0000 -0.0000 10.5189 7.0500 -33.3262 -3.8870 -7.1250 0.0000 -0.0000 -13.9711 -2.6776 15.0549 -0.0000 0.0000 0.0000 87.8122 -14.2080 47.4844 -17.4071 27.3913 -4.2729 0.0000 0.0000 19.0052 -3.8216 -55.4534 3.1492 7.1250 -0.0000 -0.0000 78.5195 -73.2691 -60.9250
8.6600 15.1533 41.9088 -179.7610 -6.1393 177.4110 0.0000 0.0000 0.0000 -27.3348 -22.7343 1.7669 2.2590 9.3859 27.0100 1.4906 8.2248 -27.3343 2.4975 -9.8334 -28.4390 0.0000 0.0000 0.0000 24.3982 12.8368 -0.3915 -2.2474 -9.3633 26.9386 -0.5545 -20.8841 -33.1234 -0.0748 -1.7642 4.8545 5.3016 3.2013 6.1327 -1.7097 4.6184 -3.8683 -5.3090 1.9456 -6.9497 10.1706 16.7706 -2.3788 -4.2798 22.2798 9.0771 -1.4583 11.1103 4.7050 -0.0000 0.0000 0.0000 -82.5266 11.8102 42.5522 21.2083 -32.0707 -6.1602 -0.0000 -0.0000 10.3046 7.2194 -33.5865 -4.0085 -7.1250 0.0000 -0.0000 -13.8933 -2.9502 15.0297 -0.0000 0.0000 0.0000 87.0078 -14.0132 48.5210 -17.6476 27.7036 -4.3842 0.0000 0.0000 18.7695 -5.8704 -54.3706 4.7772 7.1250 -0.0000 -0.0000 74.1866 -73.7967 -57.3833
8.6588 15.1549 41.9059 -179.7690 -6.0627 177.5270 0.0000 0.0000 0.0000 -27.3126 -22.7731 1.6408 2.2656 9.3987 27.0507 1.4851 8.3076 -27.3521 2.7614 -10.2985 -29.9487 0.0000 0.0000 0.0000 24.3375 12.8574 -0.5132 -2.2430 -9.3549 26.9121 -0.5642 -20.7362 -33.0061 -0.0722 -1.7334 4.7695 4.7449 2.5297 5.8274 -0.7118 3.7157 -3.5821 -3.8214 1.5719 -6.6762 7.6696 17.5438 -2.8398 -3.9999 23.4127 9.0741 -0.9758 11.5896 4.5346 0.0000 0.0000 0.0000 -85.0887 11.6381 39.3232 21.0646 -31.9036 -6.0840 -0.0000 -0.0000 11.1168 7.0231 -33.7716 -3.9176 -7.1250 0.0000 -0.0000 -14.0113 -3.1053 15.2016 0.0000 0.0000 0.0000 84.4406 -13.2525 51.6299 -17.7397 27.8226 -4.4271 0.0000 0.0000 18.0246 -5.8413 -54.4699 4.7593 7.1250 -0.0000 -0.0000 74.5336 -73.8078 -57.7250
8.6574 15.1526 41.9033 -179.6970 -6.0852 177.4670 0.0000 0.0000 0.0000 -27.2746 -22.8068 1.7317 2.2656 9.3986 27.0504 1.4854 8.3044 -27.3515 2.8553 -10.4571 -30.4700 0.0000 0.0000 0.0000 24.4142 12.7788 -0.4746 -2.2473 -9.3632 26.9381 -0.6231 -20.4351 -33.0083 -0.0856 -1.8870 5.1933 4.8780 2.4906 5.8510 -0.6646 3.6792 -3.5681 -3.8434 1.5492 -6.6741 7.5439 17.5696 -2.8375 -3.9080 23.4470 9.1721 -0.9308 11.6047 4.5412 -0.0000 0.0000 0.0000 -85.1897 11.6894 39.3148 21.0863 -31.9289 -6.0955 -0.0000 -0.0000 11.0799 6.9645 -33.5635 -3.8636 -7.1250 0.0000 -0.0000 -14.0313 -2.8968 15.1756 -0.0000 0.0000 0.0000 84.4400 -13.0928 51.6175 -17.4815 27.4881 -4.3072 0.0000 0.0000 18.1417 -5.9848 -54.3365 4.8684 7.1250 -0.0000 -0.0000 74.0276 -73.8306 -57.2721
8.6578 15.1526 41.9019 -179.6880 -6.0297 177.5320 0.0000 0.0000 0.0000 -27.2474 -22.8662 1.7035 2.2588 9.3855 27.0089 1.4917 8.2965 -27.3910 2.8249 -10.4061 -30.3022 0.0000 0.0000 0.0000 24.4095 12.8573 -0.5568 -2.2559 -9.3799 26.9909 -0.6309 -20.3187 -32.9199 -0.1040 -2.0797 5.7258 4.8479 2.5075 5.7901 -0.6261 3.6970 -3.5954 -3.7853 1.5592 -6.6704 7.5537 17.5587 -2.7064 -3.9929 23.4451 9.1272 -0.9692 11.6024 4.5181 0.0000 0.0000 0.0000 -85.2760 11.6792 39.3024 21.0328 -31.8666 -6.0672 -0.0000 -0.0000 11.0936 6.9642 -33.6784 -3.8751 -7.1250 0.0000 -0.0000 -14.0380 -3.0079 15.2095 0.0000 0.0000 0.0000 84.4077 -13.0812 51.5701 -17.4396 27.4337 -4.2879 0.0000 0.0000 18.2362 -5.8942 -54.3048 4.7926 7.1250 -0.0000 -0.0000 73.9548 -73.7906 -57.1570
8.6574 15.1481 41.9002 -179.8880 -6.1000 177.3790 0.0000 0.0000 0.0000 -27.5629 -22.8311 1.9542 2.2499 9.3683 26.9543 1.5036 8.2603 -27.4503 2.7623 -10.3000 -29.9538 0.0000 0.0000 0.0000 24.2044 12.6777 -0.4367 -2.2681 -9.4035 27.0660 -0.6732 -20.1927 -33.0301 -0.1063 -2.1025 5.7890 4.6071 2.4943 5.9593 -0.6446 3.6683 -3.5457 -3.6756 1.5561 -6.7300 7.5643 17.5158 -2.5648 -4.1300 23.4035 8.9815 -1.0312 11.5805 4.4661 -0.0000 -0.0000 0.0000 -85.3414 11.6230 39.2929 20.9495 -31.7694 -6.0233 -0.0000 -0.0000 11.1680 7.1694 -33.9738 -4.0208 -7.1250 0.0000 -0.0000 -13.9436 -3.3189 15.1732 -0.0000 -0.0000 0.0000 84.2816 -13.2511 51.6026 -17.6788 27.7439 -4.3987 0.0000 0.0000 18.1354 -5.4940 -54.6025 4.4831 7.1250 -0.0000 -0.0000 75.1099 -73.7102 -58.1594
8.6572 15.1500 41.8988 -180.0170 -6.0550 177.4740 0.0000 0.0000 0.0000 -27.6663 -22.8022 1.8902 2.2385 9.3461 26.8841 1.5022 8.3073 -27.4724 2.7681 -10.3098 -29.9859 0.0000 0.0000 0.0000 24.0088 12.6251 -0.6046 -2.2799 -9.4262 27.1380 -0.7147 -20.0302 -33.0944 -0.0808 -1.8336 5.0461 4.5483 2.5368 5.8951 -0.7432 3.7105 -3.5448 -3.7467 1.5789 -6.6849 7.5345 17.5007 -2.7040 -4.0344 23.3694 9.0068 -0.9915 11.5654 4.4789 0.0000 -0.0000 0.0000 -85.2222 11.5413 39.3775 20.9319 -31.7488 -6.0141 -0.0000 -0.0000 11.1568 7.6575 -34.2070 -4.3225 -7.1250 0.0000 -0.0000 -13.6928 -3.6061 14.9493 0.0000 -0.0000 0.0000 84.3657 -13.3196 51.5251 -17.8063 27.9084 -4.4582 0.0000 0.0000 17.9944 -5.2674 -54.9385 4.3155 7.1250 -0.0000 -0.0000 76.3239 -73.6954 -59.3022
8.6573 15.1495 41.8959 -179.9720 -6.0785 177.3930 0.0000 0.0000 0.0000 -27.7150 -22.9327 2.1065 2.2310 9.3316 26.8381 1.4858 8.5352 -27.5136 2.7592 -10.2947 -29.9363 0.0000 0.0000 0.0000 24.0823 12.5877 -0.5346 -2.2879 -9.4416 27.1867 -0.7217 -20.1354 -33.2566 -0.0610 -1.5930 4.3822 4.5825 2.5521 5.9569 -0.7343 3.7389 -3.4951 -3.7614 1.5941 -6.6636 7.4851 17.4798 -2.8860 -3.9507 23.3295 9.1086 -0.9454 11.5438 4.5213 0.0000 0.0000 0.0000 -85.1847 11.5238 39.4561 20.9691 -31.7923 -6.0337 -0.0000 -0.0000 11.1297 7.6576 -34.3065 -4.3336 -7.1250 0.0000 -0.0000 -13.6993 -3.7024 14.9785 0.0000 0.0000 0.0000 84.4274 -13.3747 51.3320 -17.8296 27.9385 -4.4691 0.0000 0.0000 18.0305 -5.4267 -54.7853 4.4380 7.1250 -0.0000 -0.0000 75.7509 -73.7231 -58.7857
8.6571 15.1501 41.8928 -179.9410 -6.0040 177.4630 0.0000 0.0000 0.0000 -27.7324 -23.1535 2.1704 2.2279 9.3255 26.8190 1.4730 8.7657 -27.5843 2.8303 -10.4151 -30.3318 0.0000 0.0000 0.0000 24.0975 12.6503 -0.5904 -2.2869 -9.4397 27.1808 -0.7345 -20.1282 -33.3251 -0.0589 -1.5662 4.3083 4.6553 2.5680 5.8728 -0.7696 3.7595 -3.5111 -3.8367 1.6007 -6.6237 7.5192 17.4832 -2.9142 -3.9166 23.3275 9.1136 -0.9371 11.5453 4.5268 0.0000 0.0000 0.0000 -85.0575 11.5645 39.5286 21.0153 -31.8462 -6.0580 -0.0000 -0.0000 11.0295 7.1848 -34.1916 -4.0521 -7.1250 0.0000 -0.0000 -13.9484 -3.5316 15.2281 0.0000 0.0000 0.0000 84.5217 -13.4149 51.2440 -17.8214 27.9278 -4.4653 0.0000 0.0000 18.2300 -5.6821 -54.5588 4.6344 7.1250 -0.0000 -0.0000 74.8934 -73.7691 -58.0217
8.6580 15.1485 41.8914 -179.9010 -5.9689 177.4370 0.0000 0.0000 0.0000 -27.6265 -22.9261 2.0708 2.2305 9.3306 26.8352 1.4842 8.5844 -27.5362 2.8163 -10.3915 -30.2541 0.0000 0.0000 0.0000 24.1575 12.7107 -0.5259 -2.2829 -9.4321 27.1566 -0.7491 -19.9968 -33.2633 -0.0722 -1.7332 4.7689 4.6037 2.5630 5.8735 -0.6903 3.7527 -3.5127 -3.7241 1.6010 -6.6346 7.5172 17.4985 -2.7636 -4.0214 23.3641 9.0388 -0.9795 11.5614 4.4944 0.0000 0.0000 0.0000 -85.1627 11.5794 39.4708 20.9883 -31.8147 -6.0438 -0.0000 -0.0000 11.0432 7.0036 -34.1009 -3.9400 -7.1250 0.0000 -0.0000 -14.0413 -3.4214 15.3101 0.0000 0.0000 0.0000 84.4384 -13.3718 51.2693 -17.7045 27.7772 -4.4107 0.0000 0.0000 18.3162 -5.8432 -54.5353 4.7647 7.1250 -0.0000 -0.0000 74.7546 -73.8225 -57.9516
8.6586 15.1520 41.8877 -179.8870 -5.9639 177.4930 0.0000 0.0000 0.0000 -27.5159 -22.7612 1.9166 2.2315 9.3325 26.8409 1.5048 8.3515 -27.5207 2.7975 -10.3599 -30.1501 0.0000 0.0000 0.0000 24.1799 12.7753 -0.5384 -2.2789 -9.4243 27.1318 -0.6981 -20.1264 -33.1046 -0.0783 -1.8048 4.9665 4.5448 2.5753 5.8735 -0.6515 3.7652 -3.5903 -3.6545 1.6052 -6.7220 7.4866 17.5072 -2.7730 -3.9208 23.3700 9.1858 -0.9406 11.5648 4.5263 -0.0000 -0.0000 0.0000 -85.2676 11.6545 39.3822 20.9318 -31.7486 -6.0140 -0.0000 -0.0000 11.1253 7.1892 -34.1648 -4.0518 -7.1250 0.0000 -0.0000 -13.9444 -3.5062 15.2176 -0.0000 -0.0000 0.0000 84.4033 -13.4028 51.3104 -17.6138 27.6598 -4.3685 0.0000 0.0000 18.2233 -5.8778 -54.5297 4.7926 7.1250 -0.0000 -0.0000 74.7231 -73.8339 -57.9349
8.6585 15.1483 41.8859 -179.9140 -6.0509 177.2480 0.0000 0.0000 0.0000 -27.6662 -22.7239 2.2225 2.2331 9.3355 26.8507 1.5242 8.2462 -27.5857 2.6379 -10.0844 -29.2504 0.0000 0.0000 0.0000 24.2109 12.6082 -0.2841 -2.2806 -9.4275 27.1420 -0.6675 -20.2903 -33.1085 -0.0877 -1.9106 5.2586 4.5981 2.5358 6.0792 -0.6947 3.7279 -3.5046 -3.7351 1.5860 -6.7471 7.4802 17.5137 -2.9241 -3.7559 23.3591 9.3721 -0.8732 11.5619 4.5868 0.0000 0.0000 0.0000 -85.2379 11.6153 39.3631 20.9130 -31.7266 -6.0041 -0.0000 -0.0000 11.1062 7.2759 -34.1499 -4.0995 -7.1250 0.0000 -0.0000 -13.8964 -3.5026 15.1612 0.0000 0.0000 0.0000 84.4016 -13.4314 51.4197 -17.7266 27.8056 -4.4209 0.0000 0.0000 18.0677 -5.8149 -54.5636 4.7432 7.1250 -0.0000 -0.0000 74.8612 -73.8183 -58.0480
8.6577 15.1503 41.8841 -179.8980 -5.9290 177.3510 0.0000 0.0000 0.0000 -27.6269 -22.7622 2.1365 2.2302 9.3300 26.8330 1.5066 8.4259 -27.5844 2.6678 -10.1367 -29.4206 0.0000 0.0000 0.0000 24.1877 12.6544 -0.4172 -2.2822 -9.4307 27.1521 -0.6742 -20.1846 -33.0271 -0.1014 -2.0533 5.6529 4.6020 2.6024 6.1027 -0.6982 3.8175 -3.6011 -3.7554 1.6230 -6.8546 7.5229 17.4933 -2.9532 -3.6923 23.3231 9.4759 -0.8557 11.5463 4.6190 -0.0000 -0.0000 0.0000 -85.1877 11.7024 39.4825 20.9465 -31.7659 -6.0218 -0.0000 -0.0000 11.0459 7.4469 -34.0263 -4.1833 -7.1250 0.0000 -0.0000 -13.7958 -3.4044 15.0223 -0.0000 -0.0000 0.0000 84.3761 -13.5897 51.4582 -17.8068 27.9091 -4.4585 0.0000 0.0000 18.0672 -5.9836 -54.4085 4.8718 7.1250 -0.0000 -0.0000 74.2722 -73.8462 -57.5215
8.6580 15.1475 41.8878 -179.8610 -5.5135 177.3170 0.0000 0.0000 0.0000 -27.6772 -22.8376 2.2646 2.2284 9.3265 26.8221 1.4763 8.9270 -27.7212 2.6957 -10.1853 -29.5788 0.0000 0.0000 0.0000 24.1983 12.7362 -0.4606 -2.2861 -9.4381 27.1756 -0.6378 -20.1460 -32.7610 -0.0838 -1.8675 5.1395 4.7733 2.7463 6.2778 -0.7732 4.0320 -3.6200 -3.9645 1.7154 -6.9398 7.5972 17.4553 -2.7877 -3.7363 23.2747 9.2344 -0.9078 11.5308 4.5289 0.0000 -0.0000 0.0000 -85.0132 11.6795 39.6301 20.9507 -31.7708 -6.0240 -0.0000 -0.0000 10.9781 7.7046 -33.9492 -4.3206 -7.1250 0.0000 -0.0000 -13.6507 -3.3623 14.8455 0.0000 -0.0000 0.0000 84.5024 -13.5797 51.4727 -17.7789 27.8732 -4.4454 0.0000 0.0000 18.0831 -6.1438 -54.3116 4.9965 7.1250 -0.0000 -0.0000 73.8824 -73.8829 -57.1952
